<svg width="108" height="40" viewBox="0 0 108 40" fill="none" xmlns="http://www.w3.org/2000/svg">
<path d="M3.54216 18.6988C3.54216 10.0241 9.18071 4.67468 16.7952 4.67468C21.4699 4.67468 25.2771 6.79516 27.3494 10.4096L23.3976 13.0602C21.7108 10.265 19.253 9.30119 16.9398 9.30119C12.1687 9.30119 8.98794 12.5783 8.98794 18.4578C8.98794 24.4337 12.4578 27.4699 16.6988 27.4699C20.1687 27.4699 22.6747 25.5422 24.3132 23.6626L27.6385 26.9397C24.9879 30.0723 21.1325 32.2409 16.3132 32.2409C9.22891 32.3373 3.54216 27.5662 3.54216 18.6988Z" fill="#2C4668"/>
<path d="M27.8795 22.5542C27.9277 16.5783 31.494 12.7229 37.2771 12.7229C43.253 12.7229 46.7229 16.5301 46.7229 22.5542C46.7229 28.4819 43.1566 32.3855 37.2771 32.3855C31.494 32.3855 27.8313 28.4819 27.8795 22.5542ZM41.759 22.5542C41.759 18.747 40.1687 16.9157 37.2771 16.9157C34.4819 16.9157 32.8434 18.7952 32.8434 22.5542C32.8434 26.3615 34.4337 28.1928 37.2771 28.1928C40.1687 28.1928 41.759 26.3133 41.759 22.5542Z" fill="#2C4668"/>
<path d="M64.6506 20.4819V31.9036H60.1687V29.4458C58.8675 31.2289 56.8434 32.3374 54.0964 32.3374C50.241 32.3374 47.6385 30.0723 47.6385 26.5542C47.6385 21.9277 52.0241 20.3856 56.7952 20.3856C57.9036 20.3856 58.9639 20.4819 59.9759 20.6265V20.3856C59.9759 17.9277 58.3373 16.7711 56.0241 16.7711C54.241 16.7711 52.2651 17.3976 50.3373 18.8916L48.1687 15.7109C50.1928 13.7831 53.3253 12.7229 56.4096 12.7229C61.3253 12.6747 64.6506 15.4699 64.6506 20.4819ZM59.9759 23.5663C59.012 23.4699 58.0482 23.4699 57.1807 23.4699C54.7229 23.4699 52.6988 24.1928 52.6988 26.2169C52.6988 27.6145 53.7108 28.5783 55.3012 28.5783C58.0964 28.5783 59.7831 26.4578 59.9759 23.5663Z" fill="#2C4668"/>
<path d="M66.4819 22.6024C66.4819 16.4819 70.3855 12.6747 76.1205 12.6747C79.3976 12.6747 82.4819 13.9759 84.0723 17.1566L80.2168 19.3253C79.3012 17.6385 77.9518 16.8675 76.2168 16.8675C73.759 16.8675 71.5903 18.506 71.5903 22.5542C71.5903 26.5542 73.7108 28.0964 76.0723 28.0964C77.759 28.0964 79.253 27.3253 80.6024 25.1566L84.3132 27.2771C82.8674 30.265 79.8313 32.2891 75.7349 32.2891C70.7229 32.3373 66.4819 28.9638 66.4819 22.6024Z" fill="#2C4668"/>
<path d="M103.542 18.8434V31.9036H98.3373V20.0482C98.3373 17.9277 97.6145 16.9157 95.8313 16.9157C94.3373 16.9157 92.6506 17.6385 91.012 18.8434V31.9036H85.8072V5.15662H91.0602V14.8434C93.0361 13.4458 95.2048 12.6747 97.3735 12.6747C101.181 12.6747 103.542 14.8434 103.542 18.8434Z" fill="#2C4668"/>
<path d="M53.5181 36.3855H28.506V37.5903H53.5181V36.3855Z" fill="#E9E540"/>
<path d="M28.5542 36.3855H3.54216V37.5903H28.5542V36.3855Z" fill="#9CC184"/>
<path d="M78.4819 36.3855H53.4699V37.5903H78.4819V36.3855Z" fill="#B04C8F"/>
<path d="M103.494 36.3855H78.4819V37.5903H103.494V36.3855Z" fill="#FAA544"/>
</svg>
